<?xml version="1.0" encoding="utf-8"?>
<!-- Generator: Adobe Illustrator 22.0.1, SVG Export Plug-In . SVG Version: 6.00 Build 0)  -->
<svg version="1.1" id="图层_1" xmlns="http://www.w3.org/2000/svg" xmlns:xlink="http://www.w3.org/1999/xlink" x="0px" y="0px"
	 viewBox="0 0 21 21" style="enable-background:new 0 0 21 21;" xml:space="preserve">
<style type="text/css">
	.st0{fill:#FFFFFF;}
</style>
<title>刷新@1x</title>
<desc>Created with Sketch.</desc>
<g id="图片验证" transform="translate(0.000000, -1.000000)">
	<g id="刷新" transform="translate(1133.000000, 268.000000)">
		<path class="st0" d="M-1122.5-267c-5.8,0-10.5,4.7-10.5,10.5c0,5.8,4.7,10.5,10.5,10.5c5.8,0,10.5-4.7,10.5-10.5c0-0.6-0.4-1-1-1
			c-0.6,0-1,0.4-1,1c0,4.7-3.9,8.6-8.6,8.6s-8.6-3.9-8.6-8.6c0-4.7,3.9-8.6,8.6-8.6c1.6,0,3.3,0.4,4.5,1.4v0.2l-1,1.2
			c-0.4,0.4,0,1.2,0.6,1.2l4.5,0.2c0.4,0,0.8-0.6,0.8-1l-1.4-4.3c-0.2-0.6-1-0.8-1.4-0.2l-0.8,1.2
			C-1118.4-266.4-1120.4-267-1122.5-267z"/>
	</g>
</g>
</svg>
