<svg id="图层_1" data-name="图层 1" xmlns="http://www.w3.org/2000/svg" viewBox="0 0 2647.3 499.98"><defs><style>.cls-1{fill:#08aeb2;}</style></defs><title>IONPartnership</title><path class="cls-1" d="M437.54,325.71l-10.8-18.8a21,21,0,0,0-16.8-33.5,17.7,17.7,0,0,0-2.3.2L265,24.91a49.66,49.66,0,0,0-86.1,0l-5.7,9.9a17.92,17.92,0,0,0-4-.4,21,21,0,0,0-20.8,21.2h0a20.79,20.79,0,0,0,5.2,13.6L6.54,325.71a49.68,49.68,0,0,0,43,74.3H65a20.81,20.81,0,0,0,38.7,0h290.9a49.68,49.68,0,0,0,49.6-49.7,51.74,51.74,0,0,0-6.6-24.6Zm-13.7,41.7a33.65,33.65,0,0,1-29.4,16.9H103.64a20.77,20.77,0,0,0-38.7,0H49.54a34,34,0,0,1-29.4-50.9l147.4-257.1c.6,0,1.1.2,1.7.2a21.07,21.07,0,0,0,20.9-21.1,20.31,20.31,0,0,0-3.8-11.9l6.1-10.7a34,34,0,0,1,58.9,0L394,281.11a20.74,20.74,0,0,0,19.4,34l10.5,18.4a33.45,33.45,0,0,1,0,33.9Z" transform="translate(0 0)"/><path class="cls-1" d="M437.44,124.71a49,49,0,0,0-42.9-24.7h-21.2a20.81,20.81,0,0,0-38.7,0h-285a49.58,49.58,0,0,0-43,74.3l9,15.7a21,21,0,0,0,17.6,32.3c.3,0,.6-.1,1-.1l145,252.8a49.61,49.61,0,0,0,86.1,0l12.4-21.6a20.89,20.89,0,0,0,19.2-33.5l140.9-245.8A49.28,49.28,0,0,0,437.44,124.71ZM424,166.41,283.14,412a20.91,20.91,0,0,0-19.3,33.8l-12.4,21.5a33.93,33.93,0,0,1-58.9,0L48.24,215.61a20.88,20.88,0,0,0-19.9-34.8l-8.2-14.4a33.9,33.9,0,0,1,12.53-46.26h.07a34.41,34.41,0,0,1,16.9-4.5h285a20.77,20.77,0,0,0,38.7,0h21.2a33.78,33.78,0,0,1,29.4,50.8Z" transform="translate(0 0)"/><path class="cls-1" d="M218.64,194.31a28,28,0,1,0-1.6,39.6c.6-.5,1.1-1.1,1.6-1.6A33.43,33.43,0,0,1,218.64,194.31Z" transform="translate(0 0)"/><path class="cls-1" d="M229.44,235.91a22.66,22.66,0,0,0,4.8,2.7,33.26,33.26,0,0,1,36.1-11.8,27.93,27.93,0,1,0-40.9,9.1Z" transform="translate(0 0)"/><path class="cls-1" d="M232.84,255.31a33.3,33.3,0,0,1,22.3,30.7A27.93,27.93,0,1,0,234,250,31.2,31.2,0,0,0,232.84,255.31Z" transform="translate(0 0)"/><path class="cls-1" d="M171.74,233.31A27.94,27.94,0,1,0,210,250a31.36,31.36,0,0,0-2.2-5A33.2,33.2,0,0,1,171.74,233.31Z" transform="translate(0 0)"/><path class="cls-1" d="M216.64,259.21a33.42,33.42,0,0,1-22.3,30.8,28,28,0,1,0,24.5-31.11h-.1l-2.1.3Z" transform="translate(0 0)"/><path class="cls-1" d="M624.63,149.19V355.45h-33.8V149.19Z" transform="translate(0 0)"/><path class="cls-1" d="M831.2,175.77c17.34,19.36,26,45.07,26,76.89s-8.67,57.21-26,76.57q-27.3,30.25-74.54,30.26c-31.78,0-56.63-10.41-74.54-30.64-17.33-19.64-25.71-45.07-25.71-76.27,0-31.49,8.38-56.91,25.71-76.56,17.91-20.8,42.76-30.91,74.54-30.91C788.17,145.15,813,155.25,831.2,175.77ZM707,196.58c-11.27,13.86-16.76,32.36-16.76,56.08,0,23.41,5.49,41.9,16.76,55.77,11.55,14.16,28.32,21.37,49.69,21.37s37.84-6.93,49.41-20.5c11.26-13.57,17-32.36,17-56.64s-5.78-43.33-17-57.2c-11.57-13.91-28-20.52-49.41-20.52s-37.85,7.18-49.69,21.63Z" transform="translate(0 0)"/><path class="cls-1" d="M922.78,149.19l102,148.78h1.14V149.19H1060V355.45h-32.94L924,204.64h-1.17V355.48H889V149.22Z" transform="translate(0 0)"/><path class="cls-1" d="M1186,149.19c49.7,0,74.84,21.09,74.84,63.27q0,63.78-75.41,63.85h-51.14v79.17h-33.8V149.22Zm-51.71,98.23h49.12c15,0,26-2.89,32.93-8.09q10.41-8.24,10.4-26.87c0-12.42-3.75-21.09-10.69-26.29-6.93-5.49-17.91-8.09-32.64-8.09h-49.12Z" transform="translate(0 0)"/><path class="cls-1" d="M1403.54,218.53q13.86,14.29,13.86,41.62V355.5h-30.62V335.83a58.38,58.38,0,0,1-21.38,17c-9.53,4.34-20.81,6.65-33.8,6.65-15.61,0-27.74-4-36.69-11.85A38.8,38.8,0,0,1,1281,317.05c0-16.76,6.33-29.76,19.65-38.72q18.19-13,51.13-13.87l32.65-.86v-5.78c0-19.65-10.69-29.18-32.07-29.18-9.25,0-16.47,1.44-22,4.91A25.94,25.94,0,0,0,1318,250.93l-32.65-2.6c3.18-16.46,11.27-28.6,24.27-36.11,11-6.94,26-10.12,45.07-10.12C1376.67,202.08,1393.13,207.55,1403.54,218.53Zm-49.41,69.66c-26.29.58-39.29,9.82-39.29,27.74a15.4,15.4,0,0,0,6.64,13,28.51,28.51,0,0,0,17.63,5.49c12.66,0,23.4-3.76,32.07-11,8.66-7.51,13.29-17.05,13.29-28.6v-7.52Z" transform="translate(0 0)"/><path class="cls-1" d="M1541.35,205.81v32.94a71.09,71.09,0,0,0-21.38-3.17c-8.67,0-16.47,3.17-23.41,10.11-8.09,7.8-11.84,17.91-11.84,30.62v79.17h-32.65V206.1h32.69v21.39c4-7.52,8.66-13.29,14.15-17.34,6.64-5.49,14.48-8.09,23.7-8.09C1529.79,202.08,1536.15,203.22,1541.35,205.81Z" transform="translate(0 0)"/><path class="cls-1" d="M1606.93,206.1h33.23v27.14h-33.23v84.37c0,3.46.58,6.07,2.31,8.09,1.73,1.73,4,2.59,7.51,2.59h19.64v27.14h-25.13q-19.48,0-28.6-10.4c-5.78-6.33-8.67-15.32-8.67-27.45V233.26h-26.87V206.12H1574V171.44l32.94-13.57Z" transform="translate(0 0)"/><path class="cls-1" d="M1797.9,263.31v92.17H1765V266.2c0-24.55-11.26-36.69-33.79-36.69a30.12,30.12,0,0,0-21.39,8.66c-6.93,6.33-11,15.61-12.13,27.45v89.86h-32.94V206.1h32.94v17.34a59.59,59.59,0,0,1,19.65-15.89,53.67,53.67,0,0,1,24.55-5.49C1779.12,202.08,1797.9,222.29,1797.9,263.31Z" transform="translate(0 0)"/><path class="cls-1" d="M1952.46,226.91c11.85,15,17.92,36.11,17.92,63H1858.56c1.16,13.87,4.91,24.56,11.27,31.78s15.6,11,27.45,11c10.11,0,18.2-2.31,24.55-6.93,4.91-3.76,9.25-9.83,13.29-18.21h32.94a67.85,67.85,0,0,1-20.81,35c-13.29,11.27-29.76,17-49.69,17-22.25,0-39.88-6.94-52.88-20.52-13.87-14.15-20.8-33.47-20.8-58.35,0-22.25,6.33-40.71,19.64-55.77,12.72-15.31,30.34-22.82,52.58-22.82C1920.69,202.08,1939.46,210.15,1952.46,226.91Zm-81.19,11.26q-9,9.12-12.13,26.87H1936c-2.88-24.26-15.88-36.11-39-36.11-11,0-19.4,2.89-25.76,9.24Z" transform="translate(0 0)"/><path class="cls-1" d="M2085.66,205.81v32.94a71.12,71.12,0,0,0-21.38-3.2c-8.68,0-16.47,3.17-23.4,10.11-8.09,7.8-11.86,17.91-11.86,30.63v79.16h-32.64V206.1H2029v21.39c4-7.52,8.67-13.29,14.16-17.34,6.65-5.49,14.48-8.09,23.7-8.09C2074.09,202.08,2080.45,203.22,2085.66,205.81Z" transform="translate(0 0)"/><path class="cls-1" d="M2225.2,249.44h-32.1c-2.31-7.51-5.78-13-10.4-15.89-4.91-3.18-12.42-4.62-22.54-4.62-8.66,0-15.3,1.15-19.64,3.75-5.2,2.61-7.51,6.65-7.51,12.43,0,4.62,3.75,9,11.85,12.42,4.9,2,14.72,4.91,29.75,8.67,16.76,4,29.47,8.66,37.56,14.16,11.84,7.5,17.91,18.2,17.91,31.49,0,31.78-22.53,47.67-67.31,47.67-41.62,0-63.85-17.62-67-52.59h32.07c1.74,9.54,5.21,16.19,10.12,20.23,4.91,3.47,12.66,5.49,23.69,5.49,23.11,0,34.67-6.33,34.67-18.49q0-10.4-13-16.47c-4.63-2.31-14.48-4.91-29.47-8.38q-26.45-6.06-37.27-13-17.34-10.86-17.33-30.33c0-13.87,5.48-24.56,17-32.08,11.26-8.09,26-11.84,44.49-11.84C2200.06,202.08,2221.73,217.66,2225.2,249.44Z" transform="translate(0 0)"/><path class="cls-1" d="M2289.05,145.15V226a52.07,52.07,0,0,1,20.51-18.49c7.24-3.75,15.6-5.49,25.14-5.49,18.2,0,31.78,5.2,40.71,15.89,8.38,10.11,12.66,25.13,12.66,45.07v92.46h-32.94V268.8c0-12.72-2.59-22.54-7.5-29.18-5.78-7.24-14.16-10.69-25.43-10.69q-15.6,0-24.27,12.14c-6.07,8.08-8.95,18.2-8.95,30.91v83.5H2256V145.15Z" transform="translate(0 0)"/><path class="cls-1" d="M2461.24,151.21a21.31,21.31,0,0,1,6.33,15.6,21.1,21.1,0,0,1-6.64,15.89,23.84,23.84,0,0,1-31.78,0,21.34,21.34,0,0,1-6.33-15.89c0-6.33,2-11.56,6.33-15.6a22.25,22.25,0,0,1,15.89-6.06A22.93,22.93,0,0,1,2461.24,151.21Zm.29,54.89V355.48h-32.94V206.1Z" transform="translate(0 0)"/><path class="cls-1" d="M2630,225.46c11.56,14.48,17.34,32.94,17.34,56.09,0,22-5.78,40.16-17.05,54.61-12.13,15.56-29.15,23.33-50.56,23.33-17.33,0-32.35-8.38-44.49-24.57v77.76h-32.94V206.1h30.63V222q15.6-19.9,45.07-19.9Q2610.9,202.08,2630,225.46ZM2543.28,244c-6.33,9-9.24,20.81-9.24,35.83v2.31c0,15.6,3.76,28.31,11.56,37.84,6.93,8.67,15.6,13,26.29,13,14.47,0,25.43-4.9,32.36-14.14,6.07-8.68,9.25-21.1,9.25-37.28s-2.89-28.6-8.38-37.27q-10.41-15.6-32.07-15.6c-13,0-22.83,4.91-29.76,15.31Z" transform="translate(0 0)"/></svg>