<svg id="图层_1" data-name="图层 1" xmlns="http://www.w3.org/2000/svg" viewBox="0 0 2251.77 500"><defs><style>.cls-1{fill:#08aeb2;}.cls-2{isolation:isolate;}</style></defs><title>IONC store_bule</title><path class="cls-1" d="M437.6,325.7l-10.8-18.8A21,21,0,0,0,410,273.4a17.85,17.85,0,0,0-2.3.2L265.1,24.9a49.66,49.66,0,0,0-86.1,0l-5.7,9.9a18.1,18.1,0,0,0-4-.4,21,21,0,0,0-20.8,21.2,20.79,20.79,0,0,0,5.2,13.6L6.6,325.7a49.68,49.68,0,0,0,43,74.3H65a20.81,20.81,0,0,0,38.7,0H394.6a49.68,49.68,0,0,0,49.6-49.7,51.74,51.74,0,0,0-6.6-24.6Zm-13.7,41.7a33.64,33.64,0,0,1-29.4,16.9H103.7a20.77,20.77,0,0,0-38.7,0H49.6a34,34,0,0,1-29.4-50.9L167.6,76.3c.6,0,1.1.2,1.7.2a21.06,21.06,0,0,0,20.9-21.1,20.31,20.31,0,0,0-3.8-11.9l6.1-10.7a34,34,0,0,1,58.9,0L394,281.1a20.74,20.74,0,0,0,19.4,34l10.5,18.4a33.45,33.45,0,0,1,0,33.9Z" transform="translate(-0.03 0.03)"/><path class="cls-1" d="M437.5,124.7A49.05,49.05,0,0,0,394.6,100H373.4a20.81,20.81,0,0,0-38.7,0H49.7a49.58,49.58,0,0,0-43,74.3l9,15.7a21,21,0,0,0,17.6,32.3c.3,0,.6-.1,1-.1L179.3,475a49.61,49.61,0,0,0,86.1,0l12.4-21.6A20.89,20.89,0,0,0,297,419.9L437.9,174.1A49.28,49.28,0,0,0,437.5,124.7ZM424,166.4,283.2,412a20.91,20.91,0,0,0-19.3,33.8l-12.4,21.5a33.93,33.93,0,0,1-58.9,0L48.3,215.6a20.88,20.88,0,0,0-19.9-34.8l-8.2-14.4a33.89,33.89,0,0,1,12.6-46.3,34.46,34.46,0,0,1,16.9-4.5h285a20.77,20.77,0,0,0,38.7,0h21.2A33.78,33.78,0,0,1,424,166.4Z" transform="translate(-0.03 0.03)"/><path class="cls-1" d="M218.7,194.3a28,28,0,1,0-1.6,39.6c.6-.5,1.1-1.1,1.6-1.6A33.43,33.43,0,0,1,218.7,194.3Z" transform="translate(-0.03 0.03)"/><path class="cls-1" d="M229.5,235.9a22.72,22.72,0,0,0,4.8,2.7,33.26,33.26,0,0,1,36.1-11.8,27.93,27.93,0,1,0-40.9,9.1Z" transform="translate(-0.03 0.03)"/><path class="cls-1" d="M232.9,255.3A33.3,33.3,0,0,1,255.2,286,27.93,27.93,0,1,0,234,250,31.16,31.16,0,0,0,232.9,255.3Z" transform="translate(-0.03 0.03)"/><path class="cls-1" d="M171.8,233.3A27.94,27.94,0,1,0,210.1,250a31.65,31.65,0,0,0-2.2-5A33.21,33.21,0,0,1,171.8,233.3Z" transform="translate(-0.03 0.03)"/><path class="cls-1" d="M216.7,259.2A33.43,33.43,0,0,1,194.4,290a28,28,0,1,0,24.4-31.1l-2.1.3Z" transform="translate(-0.03 0.03)"/><path class="cls-1" d="M628.3,135.7V364.3H590.9V135.7Z" transform="translate(-0.03 0.03)"/><path class="cls-1" d="M857.2,165.2c19.2,21.4,28.8,49.9,28.8,85.1s-9.6,63.4-28.8,84.8q-30.15,33.6-82.5,33.6c-35.2,0-62.7-11.5-82.6-33.9-19.2-21.8-28.5-49.9-28.5-84.5,0-34.9,9.3-63.1,28.5-84.8,19.8-23,47.4-34.2,82.6-34.2C809.5,131.2,837.1,142.4,857.2,165.2Zm-137.6,23c-12.5,15.4-18.6,35.9-18.6,62.1,0,25.9,6.1,46.4,18.6,61.8,12.8,15.7,31.4,23.7,55.1,23.7s41.9-7.7,54.7-22.7c12.5-15,18.9-35.9,18.9-62.8s-6.4-48-18.9-63.4c-12.8-15.4-31-22.7-54.7-22.7s-42,8-55.1,24Z" transform="translate(-0.03 0.03)"/><path class="cls-1" d="M958.7,135.7l113,164.9h1.3V135.7h37.8V364.3h-36.5L960,197.2h-1.3V364.3H921.2V135.7Z" transform="translate(-0.03 0.03)"/><path class="cls-1" d="M1321.4,152.4c16.7,13.4,26.6,32,30.1,55.1H1315c-3.8-15.1-10.9-25.9-21.4-33-10.2-7-23.4-10.2-39.4-10.2-24,0-41.9,8-54.1,24.6-11.2,14.7-16.7,35.2-16.7,61.5,0,26.9,5.4,47.7,16.3,62.1,11.8,15.4,30.4,23.4,55.4,23.4,16.3,0,29.8-4.2,40-11.9,10.9-8.6,18.6-21.8,23-39h36.5c-5.1,26.9-17,47.7-35.8,62.7q-26.4,21.15-63.4,21.1c-38.1,0-66.6-12.2-85.2-35.9-16.3-20.5-24.3-48-24.3-82.6,0-33.9,8.3-61.8,25.3-82.9,19.2-24.3,47.1-36.2,83.6-36.2C1281.7,131.2,1304.1,138.3,1321.4,152.4Z" transform="translate(-0.03 0.03)"/><path class="cls-1" d="M1723.2,198.8H1760v30.1h-36.8v93.5c0,3.8.6,6.7,2.6,9,1.9,1.9,4.5,2.9,8.3,2.9h21.8v30.1H1728c-14.4,0-25-3.8-31.7-11.5-6.4-7-9.6-17-9.6-30.4V229H1657V198.9h29.8V160.5l36.5-15Z" transform="translate(-0.03 0.03)"/><path class="cls-1" d="M1924.6,219c15,16.3,22.7,37.1,22.7,62.8,0,25.3-7.7,46.1-22.4,62.1-15.4,16.6-35.9,25-60.8,25-25.3,0-45.4-8.3-60.8-25-15-16-22.4-36.8-22.4-62.1,0-25.6,7.4-46.4,22.7-62.8,15-16.6,35.2-24.6,60.5-24.6C1889,194.3,1909.2,202.3,1924.6,219Zm-95.7,23c-7,10.2-10.6,23.7-10.6,39.7s3.5,29.1,10.6,39.4c8.3,11.8,19.8,17.9,35.2,17.9,15,0,26.9-6.1,35.2-17.9,7-10.6,10.9-23.7,10.9-39.4,0-16-3.8-29.4-10.9-39.7-8.3-12.2-20.2-17.9-35.2-17.9C1848.7,224.1,1837.2,229.8,1828.9,242Z" transform="translate(-0.03 0.03)"/><path class="cls-1" d="M2078.2,198.5V235a76.48,76.48,0,0,0-23.7-3.5c-9.6,0-18.2,3.5-25.9,11.2-9,8.6-13.1,19.9-13.1,33.9v87.7h-36.2V198.8h36.2v23.7c4.5-8.3,9.6-14.7,15.7-19.2,7.4-6.1,16-9,26.2-9C2065.4,194.3,2072.5,195.6,2078.2,198.5Z" transform="translate(-0.03 0.03)"/><path class="cls-1" d="M2231.9,221.8c13.1,16.6,19.9,40,19.9,69.8H2127.9c1.3,15.4,5.4,27.2,12.5,35.2s17.3,12.2,30.4,12.2c11.2,0,20.2-2.6,27.2-7.7,5.4-4.2,10.2-10.9,14.7-20.2h36.5a74.07,74.07,0,0,1-23.1,38.7c-14.7,12.5-33,18.9-55.1,18.9-24.6,0-44.2-7.7-58.6-22.7-15.4-15.7-23.1-37.1-23.1-64.7,0-24.6,7.1-45.1,21.8-61.8,14.1-17,33.6-25.3,58.3-25.3C2196.7,194.3,2217.5,203.3,2231.9,221.8Zm-90,12.5c-6.7,6.7-11.2,16.6-13.4,29.8h85.1c-3.2-26.9-17.6-40-43.2-40-12.1,0-21.4,3.2-28.5,10.2Z" transform="translate(-0.03 0.03)"/><g class="cls-2"><path class="cls-1" d="M1613.58,146.12c16,11.86,25.33,30.45,27.57,55.45H1604c-3.21-14.1-9.3-24.36-17.63-30.45-8.33-6.41-21.15-9.29-37.82-9.29-14.42,0-25.32,1.92-33,6.09-9.62,4.81-14.1,12.82-14.1,23.72,0,9.61,5.12,17.63,16,23.39,4.81,2.57,18,7.38,39.1,14.11,31.09,9.61,51,17.3,59.94,22.43,19.87,11.86,29.81,28.21,29.81,49.36,0,20.51-8,36.86-24,48.72-16,11.54-38.78,17.63-68,17.63-28.2,0-50.32-5.45-66-16.35-19.23-13.46-29.81-34.61-31.41-63.78H1494c2.57,17.31,8.66,29.81,18.59,37.18,9,6.41,22.76,9.93,41.67,9.93,16.67,0,30.13-2.88,39.74-8.33,9.62-5.77,14.75-13.14,14.75-22.76,0-12.17-7.37-21.79-21.48-28.84-4.48-2.24-19.23-7.37-44.55-15.07-28.2-9-45.83-15.38-52.56-19.23-17.63-10.57-26.28-26-26.28-46.15s8.33-36.22,25.64-47.76c16-11.21,36.22-16.66,60.89-16.66C1577.37,129.46,1598.52,134.91,1613.58,146.12Z" transform="translate(-0.03 0.03)"/></g></svg>